<svg version="1.1" xmlns="http://www.w3.org/2000/svg" xmlns:xlink="http://www.w3.org/1999/xlink" viewBox="0 0 226 226"><g fill="none" fill-rule="nonzero" stroke="none" stroke-width="1" stroke-linecap="butt" stroke-linejoin="miter" stroke-miterlimit="10" stroke-dasharray="" stroke-dashoffset="0" font-family="none" font-weight="none" font-size="none" text-anchor="none" style="mix-blend-mode: normal"><path d="M0,226v-226h226v226z" fill="none"></path><g fill="#db2828"><path d="M82.98438,19.42188c-9.71094,0 -17.65625,7.94531 -17.65625,17.65625v26.48438h-40.60937c-12.7125,0 -22.95312,10.24062 -22.95312,22.95313v97.10938c0,12.7125 10.24063,22.95313 22.95313,22.95313h75.57013c2.825,0 5.47206,-2.12013 5.64862,-4.94513c0.17656,-3.00156 -2.29531,-5.64862 -5.29687,-5.64862h-75.92187c-6.88594,0 -12.35937,-5.47344 -12.35937,-12.35937v-97.10937c0,-6.88594 5.47344,-12.35937 12.35938,-12.35937h97.10938c6.88594,0 12.35938,5.47344 12.35938,12.35938v78.03925c0,12.18281 4.94375,23.30763 13.24219,31.4295h-4.06232c-6.53281,0 -13.24219,-2.11875 -17.65625,-7.0625c-2.29531,-2.47188 -6.17831,-2.29669 -8.29706,0.35175c-1.58906,2.11875 -1.23525,5.12031 0.70694,7.0625c6.70937,6.53281 15.53681,10.242 24.89462,10.242h22.60138c2.47188,0 4.76719,-1.41112 5.29688,-3.883c0.88281,-2.825 -0.70694,-5.65207 -3.35538,-6.53488c-13.59531,-4.59062 -22.77725,-17.30312 -22.77725,-31.78125v-12.53525h13.94913c7.94531,0 15.71337,-3.17812 21.36337,-8.82812c5.65,5.65 13.2415,8.82813 21.36337,8.82813h4.23819c4.76719,0 7.06181,-5.82518 3.70712,-9.17987c-7.23906,-7.0625 -11.65244,-16.95207 -11.65244,-27.72238v-77.86337c0,-9.71094 -7.94531,-17.65625 -17.65625,-17.65625zM54.73438,114.41388c-4.87564,0 -8.82812,3.95249 -8.82812,8.82813c0,4.87564 3.95249,8.82812 8.82813,8.82812c4.87564,0 8.82813,-3.95249 8.82813,-8.82812c0,-4.87564 -3.95249,-8.82812 -8.82812,-8.82812zM90.04688,114.41388c-4.87564,0 -8.82812,3.95249 -8.82812,8.82813c0,4.87564 3.95249,8.82812 8.82813,8.82812c4.87564,0 8.82813,-3.95249 8.82813,-8.82812c0,-4.87564 -3.95249,-8.82812 -8.82812,-8.82812zM55.44132,143.36737c0,9.8875 7.94531,17.65625 17.65625,17.65625c9.71094,0 17.65625,-7.94531 17.65625,-17.65625zM188.92188,195.98438c-2.92538,0 -5.29687,2.37149 -5.29687,5.29688c0,2.92538 2.37149,5.29688 5.29688,5.29688c2.92538,0 5.29688,-2.37149 5.29688,-5.29687c0,-2.92538 -2.37149,-5.29687 -5.29687,-5.29687z"></path></g></g></svg>